<svg xmlns="http://www.w3.org/2000/svg" width="93" height="65.1" viewBox="0 0 93 65.1">
  <g id="_5296521_play_video_vlog_youtube_youtube_logo_icon" data-name="5296521_play_video_vlog_youtube_youtube logo_icon" transform="translate(0 -76.801)">
    <path id="Path_49" data-name="Path 49" d="M91.056,86.967a11.645,11.645,0,0,0-8.222-8.222C75.581,76.8,46.5,76.8,46.5,76.8s-29.082,0-36.335,1.944a11.647,11.647,0,0,0-8.222,8.222C0,94.219,0,109.351,0,109.351s0,15.132,1.943,22.384a11.648,11.648,0,0,0,8.222,8.223C17.418,141.9,46.5,141.9,46.5,141.9s29.082,0,36.335-1.943a11.646,11.646,0,0,0,8.222-8.223C93,124.483,93,109.351,93,109.351s0-15.132-1.944-22.385Z" fill="#ed1f24"/>
    <path id="Path_50" data-name="Path 50" d="M204.8,207.1l24.161-13.95L204.8,179.2Z" transform="translate(-167.597 -83.8)" fill="#fff"/>
  </g>
</svg>
