<svg id="linkedin" xmlns="http://www.w3.org/2000/svg" width="16.003" height="16.003" viewBox="0 0 16.003 16.003">
  <path id="Path_73" data-name="Path 73" d="M29.952,16h-11.9A2.059,2.059,0,0,0,16,18.051v11.9A2.059,2.059,0,0,0,18.051,32h11.9A2.059,2.059,0,0,0,32,29.952v-11.9A2.059,2.059,0,0,0,29.952,16ZM21.5,23.728v4.941H19.334V22.435H21.5Zm-1.088-2.223a1.092,1.092,0,1,1,1.092-1.092A1.092,1.092,0,0,1,20.413,21.505Zm8.256,3.763v3.4H26.8V25.641c0-.725-.079-1.658-1.072-1.658-1.009,0-1.161.789-1.161,1.605v3.081h-1.8V22.435H24.5v.833h.018a2,2,0,0,1,1.835-.834,1.957,1.957,0,0,1,2.277,1.927,7.211,7.211,0,0,1,.049.907Z" transform="translate(-16 -16)" fill="#0077b5" fill-rule="evenodd"/>
</svg>
