<svg id="tiktok" xmlns="http://www.w3.org/2000/svg" width="16.003" height="16.003" viewBox="0 0 16.003 16.003">
  <g transform="translate(-170 -170)">
    <path id="Path_64" data-name="Path 64" d="M171.6,170h12.8a1.6,1.6,0,0,1,1.6,1.6v12.8a1.6,1.6,0,0,1-1.6,1.6H171.6a1.6,1.6,0,0,1-1.6-1.6V171.6A1.6,1.6,0,0,1,171.6,170Z" fill="#fff" fill-rule="evenodd"/>
    <path id="Path_65" data-name="Path 65" d="M1719.183,2198.5a.875.875,0,1,0,0-1.749h-.133a.875.875,0,1,1,0,1.749Z" transform="translate(-1539.134 -2013.776)" fill="#ee1d51" fill-rule="evenodd"/>
    <path id="Path_66" data-name="Path 66" d="M1559.685,2196.75h-.133a.875.875,0,1,0,0,1.749h.133a.875.875,0,1,1,0-1.749Z" transform="translate(-1379.781 -2013.776)" fill="#66c8cf" fill-rule="evenodd"/>
    <path id="Path_72" data-name="Path 72" d="M.429,0A.425.425,0,1,1,0,.425.427.427,0,0,1,.429,0Z" transform="translate(179.481 183.423)" fill="#fff"/>
    <path id="Path_67" data-name="Path 67" d="M670,2135v.443h.519v1.689h.519v-1.677h.423l.145-.455Zm4.251,0v.443h.519v1.689h.519v-1.677h.423l.145-.455Zm-2.548.251a.254.254,0,1,1,.253.252A.252.252,0,0,1,671.7,2135.251Zm0,.431h.507v1.449H671.7Zm.725-.683v2.132h.507v-.551l.157-.144.5.707h.543l-.713-1.03.64-.623h-.616l-.507.5V2135Zm5.471,0v2.132h.507v-.551l.157-.144.5.707h.544l-.713-1.03.64-.623h-.616l-.507.5V2135Z" transform="translate(-496.799 -1952.422)" fill="#264175" fill-rule="evenodd"/>
    <path id="Path_68" data-name="Path 68" d="M903.994,441.283a4.262,4.262,0,0,0,2.486.8v-1.783a2.513,2.513,0,0,1-.522-.055v1.4a4.262,4.262,0,0,1-2.486-.8v3.638a3.3,3.3,0,0,1-5.132,2.738,3.3,3.3,0,0,0,5.654-2.3v-3.638Zm.644-1.8a2.485,2.485,0,0,1-.644-1.455V437.8H903.5a2.5,2.5,0,0,0,1.139,1.684Zm-5.147,6.344a1.508,1.508,0,0,1,1.658-2.349v-1.823a3.326,3.326,0,0,0-.522-.03v1.419a1.508,1.508,0,0,0-1.136,2.783Z" transform="translate(-723.678 -266.086)" fill="#ee1d52" fill-rule="evenodd"/>
    <path id="Path_69" data-name="Path 69" d="M757.612,440.849a4.262,4.262,0,0,0,2.486.8v-1.4a3.934,3.934,0,0,1-2.458-2.44h-1.3v7.121a2.133,2.133,0,1,1-1.573-1.876v-1.419a3.086,3.086,0,1,0,2.845,2.861Z" transform="translate(-577.817 -266.086)" fill="#264175" fill-rule="evenodd"/>
    <path id="Path_70" data-name="Path 70" d="M679.08,372.874v-.379a2.486,2.486,0,0,1-1.32-.377A2.493,2.493,0,0,0,679.08,372.874Zm-2.458-2.44q-.018-.1-.027-.2V370H674.8v7.121a1.509,1.509,0,0,1-2.187,1.341,1.508,1.508,0,0,0,2.709-.907v-7.121Zm-2.872,3.826v-.4a3.3,3.3,0,0,0-2.288,6,3.295,3.295,0,0,1,2.288-5.6Z" transform="translate(-496.799 -198.72)" fill="#69c9d0" fill-rule="evenodd"/>
    <path id="Path_71" data-name="Path 71" d="M1580.314,2198.5a.875.875,0,1,0,0-1.749h-.012a.875.875,0,1,0,0,1.749Zm-.435-.875a.429.429,0,1,1,.429.426A.427.427,0,0,1,1579.879,2197.625Z" transform="translate(-1400.398 -2013.776)" fill="#264175" fill-rule="evenodd"/>
  </g>
</svg>
