<svg id="yt" xmlns="http://www.w3.org/2000/svg" width="21.583" height="16.003" viewBox="0 0 21.583 16.003">
  <path d="M21.963,7.077a4.79,4.79,0,0,0-.941-2.353,2.945,2.945,0,0,0-2.259-1.035h-.094C15.75,3.5,11.42,3.5,11.326,3.5c0,0-4.424,0-7.343.188H3.889A2.945,2.945,0,0,0,1.63,4.724,5.38,5.38,0,0,0,.688,7.171C.688,7.265.5,8.96.5,10.748v1.6c0,1.789.188,3.483.188,3.577a4.79,4.79,0,0,0,.941,2.353,3.442,3.442,0,0,0,2.259,1.035h.282c1.694.188,6.872.188,7.06.188h0s4.424,0,7.343-.188h.094a3.855,3.855,0,0,0,2.259-1.035,5.379,5.379,0,0,0,.941-2.448c0-.094.188-1.789.188-3.577v-1.6A27.858,27.858,0,0,0,21.963,7.077ZM15,11.69,9.349,14.7c-.094,0-.094.094-.188.094s-.188,0-.188-.094a.489.489,0,0,1-.188-.377V8.207a.489.489,0,0,1,.188-.377.42.42,0,0,1,.471,0l5.648,3.012c.188.094.282.188.282.377A.625.625,0,0,1,15,11.69Z" transform="translate(-0.5 -3.5)" fill="#fff"/>
</svg>
